<svg width="176" height="48" viewBox="0 0 176 48" fill="none" xmlns="http://www.w3.org/2000/svg">
    <path d="M41.4122 22.5877C41.3329 23.3034 41.3329 23.4628 41.1733 23.4628C41.0539 23.7014 40.7749 23.94 40.3373 24.0593C39.5767 24.2178 32.7728 26.0473 32.6973 26.0473C31.782 26.326 31.4629 26.7631 31.4629 26.7631L32.2196 22.7461C32.2196 22.7461 32.4986 20.4393 35.5637 20.4393H39.505C40.1022 20.4393 40.5799 20.6378 40.8981 20.9957C41.372 21.4739 41.4523 22.1496 41.4122 22.5877ZM46.6271 21.2353C46.6281 20.4517 46.4743 19.6756 46.1746 18.9514C45.8748 18.2273 45.435 17.5693 44.8803 17.0152C44.3255 16.4611 43.6668 16.0217 42.9419 15.7223C42.2169 15.4229 41.4399 15.2693 40.6554 15.2703H34.7994L34.4411 15.3104C31.0568 15.549 28.1512 18.0142 27.4346 21.3155V21.3947C26.9168 24.8543 25.9221 31.2173 25.882 31.4158C25.7224 33.2053 26.3234 34.9947 27.6334 36.4263C28.3884 37.2475 29.3048 37.9043 30.3254 38.3559C31.3459 38.8075 32.4487 39.0441 33.5649 39.0509H39.6961C41.9654 39.0509 43.8763 37.3807 44.2747 35.114L44.8318 31.5351H41.4122C40.4567 31.5351 39.6207 32.0524 39.3025 32.9667C39.2258 33.2256 39.0689 33.4537 38.8543 33.6179C38.6397 33.7822 38.3784 33.8743 38.1082 33.881H33.3662C32.0123 33.8018 30.8982 32.8865 31.0176 31.8529C31.0969 31.1371 31.5747 30.8584 32.8884 30.4614L42.3275 27.9561C42.3676 27.9561 45.791 26.9225 46.1493 24.2979C46.1895 23.94 46.2287 23.8207 46.2688 23.542C46.3089 23.3435 46.3481 23.0648 46.4284 22.5877C46.5721 22.1517 46.6393 21.6941 46.6271 21.2353Z" fill="#F86E32"/>
    <path d="M15.3752 31.7335V31.7736C15.2439 32.3717 14.9116 32.9069 14.4336 33.2903C13.9556 33.6736 13.3607 33.882 12.7477 33.8809H8.88567C8.17816 33.8809 7.49963 33.6002 6.99935 33.1004C6.49907 32.6007 6.21801 31.923 6.21801 31.2162C6.21801 31.137 8.00951 18.0934 8.00951 18.0934C8.4735 18.6545 9.05893 19.1032 9.7217 19.4056L15.1363 21.9109C15.536 22.1498 15.8673 22.4876 16.0981 22.8916C16.3289 23.2957 16.4515 23.7525 16.4539 24.2177C16.41 24.2578 16.4539 24.8142 15.3752 31.7335ZM22.5011 24.4563C23.2578 19.9229 19.3165 18.0542 19.1569 17.9741C18.9181 17.8548 12.548 15.3495 10.6772 14.3159C8.76624 13.2422 9.24397 10.8562 9.2841 10.6176L10.0007 5.40854C10.2797 3.38046 10.0007 1.86965 9.2048 0.954392C8.4882 0.119299 7.4926 0 7.01487 0H5.02463L0.12787 29.904C-0.389992 33.0458 0.765166 35.1531 1.79994 36.3862C3.19301 38.0163 5.30363 39.0508 7.33399 39.0508H13.8235C17.6855 39.0508 20.9494 35.9892 21.2284 32.0914C21.3879 30.9776 21.8657 28.1546 22.502 24.4563" fill="#F86E32"/>
    <path d="M49.5735 27.7035C49.9646 25.4655 50.8229 23.4664 52.1483 21.7064C53.4737 19.9247 55.1034 18.545 57.0372 17.5672C58.971 16.5677 61.0243 16.0679 63.1972 16.0679C65.7611 16.0679 67.8688 16.698 69.5202 17.9583C71.1932 19.1968 72.2036 20.9459 72.5513 23.2057H67.3039C66.9562 22.2496 66.3695 21.5217 65.5439 21.022C64.7182 20.5222 63.6969 20.2724 62.4802 20.2724C61.133 20.2724 59.8836 20.5766 58.732 21.185C57.5804 21.7934 56.6135 22.6625 55.8313 23.7924C55.049 24.9222 54.5276 26.2259 54.2668 27.7035C54.1582 28.225 54.1039 28.8225 54.1039 29.4961C54.1039 31.2778 54.6253 32.6793 55.6683 33.7005C56.733 34.7 58.1888 35.1998 60.0357 35.1998C61.7523 35.1998 63.2515 34.7326 64.5335 33.7983C65.8372 32.864 66.8041 31.5711 67.4342 29.9198H59.612L60.1987 26.465H72.5187L71.8016 30.4413C71.215 32.0274 70.3024 33.4941 69.0639 34.8413C67.8253 36.1884 66.3478 37.2748 64.6313 38.1005C62.9147 38.9045 61.0787 39.3064 59.1231 39.3064C57.1893 39.3064 55.4836 38.9153 54.0061 38.1331C52.5503 37.3509 51.4095 36.2645 50.5839 34.8738C49.7799 33.4615 49.3779 31.8319 49.3779 29.985C49.3779 29.2462 49.4431 28.4857 49.5735 27.7035Z" fill="#1A202C"/>
    <path d="M72.8797 30.0175C73.2057 28.1924 73.8466 26.5736 74.8027 25.1613C75.7805 23.7489 76.9647 22.6625 78.3553 21.902C79.7459 21.1415 81.2126 20.7613 82.7553 20.7613C84.1025 20.7613 85.2323 21.0329 86.1449 21.5761C87.0792 22.1193 87.7637 22.8037 88.1983 23.6294L88.6545 21.0546H93.2501L90.056 39.1109H85.4605L85.9494 36.4709C85.2323 37.3183 84.298 38.0245 83.1464 38.5894C82.0165 39.1326 80.778 39.4042 79.4308 39.4042C78.1054 39.4042 76.9321 39.1109 75.9108 38.5242C74.8896 37.9158 74.0965 37.0684 73.5316 35.982C72.9666 34.8738 72.6842 33.5919 72.6842 32.1361C72.6842 31.4625 72.7494 30.7563 72.8797 30.0175ZM87.0575 30.0827C87.1444 29.5178 87.1879 29.105 87.1879 28.8442C87.1879 27.5622 86.8076 26.5627 86.0471 25.8457C85.3084 25.1287 84.3741 24.7701 83.2442 24.7701C82.3968 24.7701 81.5711 24.9766 80.7671 25.3894C79.9849 25.8022 79.3005 26.4106 78.7138 27.2146C78.1271 27.9968 77.736 28.9311 77.5405 30.0175C77.4753 30.4304 77.4427 30.8215 77.4427 31.1909C77.4427 32.4946 77.8121 33.5267 78.5508 34.2872C79.2896 35.0259 80.2239 35.3953 81.3538 35.3953C82.2012 35.3953 83.0269 35.1889 83.8308 34.7761C84.6348 34.3415 85.3192 33.7222 85.8842 32.9183C86.4708 32.1143 86.862 31.1692 87.0575 30.0827Z" fill="#1A202C"/>
    <path d="M118.973 20.7938C120.885 20.7938 122.396 21.3045 123.504 22.3257C124.612 23.3469 125.166 24.7919 125.166 26.6605C125.166 27.3558 125.112 27.9751 125.003 28.5183L123.113 39.1109H118.582L120.342 29.1375C120.407 28.7464 120.44 28.3662 120.44 27.9968C120.44 26.9538 120.147 26.1608 119.56 25.6175C118.995 25.0526 118.18 24.7701 117.116 24.7701C115.855 24.7701 114.791 25.1504 113.921 25.9109C113.052 26.6496 112.509 27.7252 112.292 29.1375V29.105L110.499 39.1109H105.969L107.729 29.1375C107.794 28.7464 107.827 28.3771 107.827 28.0294C107.827 26.9647 107.533 26.1608 106.947 25.6175C106.36 25.0526 105.534 24.7701 104.47 24.7701C103.275 24.7701 102.242 25.1287 101.373 25.8457C100.526 26.541 99.9718 27.5405 99.7111 28.8442L97.8859 39.1109H93.2903L96.4844 21.0546H101.08L100.689 23.2057C101.406 22.4669 102.264 21.8803 103.264 21.4457C104.263 21.0111 105.317 20.7938 106.425 20.7938C107.837 20.7938 109.043 21.098 110.043 21.7064C111.042 22.2931 111.749 23.1405 112.161 24.2487C112.922 23.2057 113.911 22.3692 115.127 21.739C116.366 21.1089 117.648 20.7938 118.973 20.7938Z" fill="#1A202C"/>
    <path d="M132.12 18.9035C131.403 18.9035 130.827 18.6971 130.392 18.2842C129.958 17.8714 129.74 17.3499 129.74 16.7198C129.74 15.8506 130.066 15.1119 130.718 14.5035C131.392 13.8734 132.174 13.5583 133.065 13.5583C133.76 13.5583 134.325 13.7647 134.76 14.1775C135.194 14.5904 135.411 15.1119 135.411 15.742C135.411 16.6111 135.085 17.3608 134.434 17.9909C133.782 18.5993 133.01 18.9035 132.12 18.9035ZM134.01 21.0546L130.816 39.1109H126.22L129.414 21.0546H134.01Z" fill="#1A202C"/>
    <path d="M147.302 20.7938C149.171 20.7938 150.637 21.3045 151.702 22.3257C152.788 23.3252 153.331 24.7593 153.331 26.6279C153.331 27.3232 153.277 27.9534 153.169 28.5183L151.278 39.1109H146.748L148.508 29.1375C148.573 28.7464 148.606 28.3662 148.606 27.9968C148.606 26.9104 148.312 26.0847 147.726 25.5198C147.161 24.9548 146.346 24.6724 145.281 24.6724C144.064 24.6724 143.021 25.0417 142.152 25.7805C141.305 26.4975 140.74 27.5405 140.457 28.9094L138.665 39.1109H134.069L137.263 21.0546H141.859L141.468 23.2709C142.207 22.5104 143.087 21.9129 144.108 21.4783C145.129 21.022 146.194 20.7938 147.302 20.7938Z" fill="#1A202C"/>
    <path d="M164.727 20.7613C166.074 20.7613 167.215 21.0329 168.149 21.5761C169.105 22.0975 169.779 22.782 170.17 23.6294L170.626 21.0546H175.222L172.028 39.2413C171.723 40.9143 171.115 42.4027 170.202 43.7064C169.29 45.0319 168.095 46.0748 166.617 46.8353C165.14 47.6176 163.445 48.0087 161.533 48.0087C158.991 48.0087 157.002 47.4111 155.568 46.2161C154.156 45.021 153.515 43.3914 153.645 41.3272H158.176C158.263 42.1529 158.654 42.8047 159.349 43.2827C160.066 43.7825 160.99 44.0324 162.12 44.0324C163.467 44.0324 164.607 43.6304 165.542 42.8264C166.498 42.0442 167.128 40.8492 167.432 39.2413L167.921 36.4383C167.182 37.2857 166.248 37.9919 165.118 38.5568C164.01 39.1217 162.793 39.4042 161.468 39.4042C160.142 39.4042 158.958 39.1109 157.915 38.5242C156.894 37.9158 156.09 37.0684 155.503 35.982C154.938 34.8738 154.656 33.5919 154.656 32.1361C154.656 31.4625 154.721 30.7563 154.851 30.0175C155.177 28.1924 155.818 26.5736 156.774 25.1613C157.752 23.7489 158.936 22.6625 160.327 21.902C161.718 21.1415 163.184 20.7613 164.727 20.7613ZM169.029 30.0827C169.116 29.5178 169.16 29.105 169.16 28.8442C169.16 27.5622 168.779 26.5627 168.019 25.8457C167.28 25.1287 166.346 24.7701 165.216 24.7701C164.368 24.7701 163.543 24.9766 162.739 25.3894C161.957 25.8022 161.272 26.4106 160.685 27.2146C160.099 27.9968 159.708 28.9311 159.512 30.0175C159.447 30.4304 159.414 30.8215 159.414 31.1909C159.414 32.4946 159.784 33.5267 160.522 34.2872C161.261 35.0259 162.196 35.3953 163.325 35.3953C164.173 35.3953 164.999 35.1889 165.802 34.7761C166.606 34.3415 167.291 33.7222 167.856 32.9183C168.442 32.1143 168.834 31.1692 169.029 30.0827Z" fill="#1A202C"/>
</svg>
