<svg width="90" height="120" viewBox="0 0 47 40" fill="none" xmlns="http://www.w3.org/2000/svg">
    <path d="M41.4122 22.5877C41.3329 23.3034 41.3329 23.4628 41.1733 23.4628C41.0539 23.7014 40.7749 23.94 40.3373 24.0593C39.5767 24.2178 32.7728 26.0473 32.6973 26.0473C31.782 26.326 31.4629 26.7631 31.4629 26.7631L32.2196 22.7461C32.2196 22.7461 32.4986 20.4393 35.5637 20.4393H39.505C40.1022 20.4393 40.5799 20.6378 40.8981 20.9957C41.372 21.4739 41.4523 22.1496 41.4122 22.5877ZM46.6271 21.2353C46.6281 20.4517 46.4743 19.6756 46.1746 18.9514C45.8748 18.2273 45.435 17.5693 44.8803 17.0152C44.3255 16.4611 43.6668 16.0217 42.9419 15.7223C42.2169 15.4229 41.4399 15.2693 40.6554 15.2703H34.7994L34.4411 15.3104C31.0568 15.549 28.1512 18.0142 27.4346 21.3155V21.3947C26.9168 24.8543 25.9221 31.2173 25.882 31.4158C25.7224 33.2053 26.3234 34.9947 27.6334 36.4263C28.3884 37.2475 29.3048 37.9043 30.3254 38.3559C31.3459 38.8075 32.4487 39.0441 33.5649 39.0509H39.6961C41.9654 39.0509 43.8763 37.3807 44.2747 35.114L44.8318 31.5351H41.4122C40.4567 31.5351 39.6207 32.0524 39.3025 32.9667C39.2258 33.2256 39.0689 33.4537 38.8543 33.6179C38.6397 33.7822 38.3784 33.8743 38.1082 33.881H33.3662C32.0123 33.8018 30.8982 32.8865 31.0176 31.8529C31.0969 31.1371 31.5747 30.8584 32.8884 30.4614L42.3275 27.9561C42.3676 27.9561 45.791 26.9225 46.1493 24.2979C46.1895 23.94 46.2287 23.8207 46.2688 23.542C46.3089 23.3435 46.3481 23.0648 46.4284 22.5877C46.5721 22.1517 46.6393 21.6941 46.6271 21.2353Z" fill="#F86E32"/>
    <path d="M15.3752 31.7335V31.7736C15.2439 32.3717 14.9116 32.9069 14.4336 33.2903C13.9556 33.6736 13.3607 33.882 12.7477 33.8809H8.88567C8.17816 33.8809 7.49963 33.6002 6.99935 33.1004C6.49907 32.6007 6.21801 31.923 6.21801 31.2162C6.21801 31.137 8.00951 18.0934 8.00951 18.0934C8.4735 18.6545 9.05893 19.1032 9.7217 19.4056L15.1363 21.9109C15.536 22.1498 15.8673 22.4876 16.0981 22.8916C16.3289 23.2957 16.4515 23.7525 16.4539 24.2177C16.41 24.2578 16.4539 24.8142 15.3752 31.7335ZM22.5011 24.4563C23.2578 19.9229 19.3165 18.0542 19.1569 17.9741C18.9181 17.8548 12.548 15.3495 10.6772 14.3159C8.76624 13.2422 9.24397 10.8562 9.2841 10.6176L10.0007 5.40854C10.2797 3.38046 10.0007 1.86965 9.2048 0.954392C8.4882 0.119299 7.4926 0 7.01487 0H5.02463L0.12787 29.904C-0.389992 33.0458 0.765166 35.1531 1.79994 36.3862C3.19301 38.0163 5.30363 39.0508 7.33399 39.0508H13.8235C17.6855 39.0508 20.9494 35.9892 21.2284 32.0914C21.3879 30.9776 21.8657 28.1546 22.502 24.4563" fill="#F86E32"/>
</svg>
